# xmcd
#
# Track frame offsets:
#	150
#	22777
#	47667
#	68904
#	96782
#	119394
#	140187
#	155185
#	174335
#	197327
#	215382
#	238125
#
# Disc length: 3566 seconds
#
# Revision: 1
# Processed by: cddbd v1.5.2PL0 Copyright (c) Steve Scherf et al.
# Submitted via: audiograbber 1.83.01
#
DISCID=a60dec0c
DTITLE=Taj Mahal and  Toumani Diabate - Kulanjan
DYEAR=1900
DGENRE=Blues
TTITLE0=Queen Bee
TTITLE1=Tunkaranke
TTITLE2=Ol' Georgie Buck
TTITLE3=Kulanjan
TTITLE4=Fanta
TTITLE5=Guede Man Na
TTITLE6=Catfish Blues
TTITLE7=K'an Ben
TTITLE8=Take This Hammer
TTITLE9=Atlanta Kaira
TTITLE10=Missisippi-Mali Blues
TTITLE11=Sahara
EXTD=
EXTT0=
EXTT1=
EXTT2=
EXTT3=
EXTT4=
EXTT5=
EXTT6=
EXTT7=
EXTT8=
EXTT9=
EXTT10=
EXTT11=
PLAYORDER=
